<svg width="20" height="20" viewBox="0 0 20 20" fill="none" xmlns="http://www.w3.org/2000/svg">
<path d="M0.777832 0.778076H19.2223V19.2225H0.777832V0.778076Z" fill="#8BB7F0" stroke="black"/>
<mask id="path-2-inside-1_1_29" fill="white">
<path d="M19.4444 0.555556V19.4444H0.555556V0.555556H19.4444ZM20 0H0V20H20V0Z"/>
</mask>
<path d="M19.4444 0.555556V19.4444H0.555556V0.555556H19.4444ZM20 0H0V20H20V0Z" fill="#4E7AB5"/>
<path d="M19.4444 0.555556H20.4444V-0.444444H19.4444V0.555556ZM19.4444 19.4444V20.4444H20.4444V19.4444H19.4444ZM0.555556 19.4444H-0.444444V20.4444H0.555556V19.4444ZM0.555556 0.555556V-0.444444H-0.444444V0.555556H0.555556ZM20 0H21V-1H20V0ZM0 0V-1H-1V0H0ZM0 20H-1V21H0V20ZM20 20V21H21V20H20ZM18.4444 0.555556V19.4444H20.4444V0.555556H18.4444ZM19.4444 18.4444H0.555556V20.4444H19.4444V18.4444ZM1.55556 19.4444V0.555556H-0.444444V19.4444H1.55556ZM0.555556 1.55556H19.4444V-0.444444H0.555556V1.55556ZM20 -1H0V1H20V-1ZM-1 0V20H1V0H-1ZM0 21H20V19H0V21ZM21 20V0H19V20H21Z" fill="black" mask="url(#path-2-inside-1_1_29)"/>
<path d="M13.889 11.7221H13.389V12.2221V18.9443H11.6112V12.2221V11.7221H11.1112H8.83344V9.94429H11.1112H11.6112V9.44429V7.31595C11.6112 6.11563 11.9348 5.25931 12.4576 4.70583C12.9769 4.15614 13.7543 3.83984 14.7995 3.83984C15.5472 3.83984 16.2664 3.87833 16.7223 3.91306V5.59945L15.5279 5.59984C15.5278 5.59984 15.5278 5.59984 15.5277 5.59984C14.8335 5.59987 14.2686 5.76433 13.8841 6.15435C13.5 6.54384 13.389 7.06415 13.389 7.56429V9.44429V9.94429H13.889H16.441L16.1928 11.7221H13.889Z" fill="white" stroke="black"/>
</svg>
